<?xml version="1.0" encoding="utf-8"?>
<!-- Generator: Adobe Illustrator 21.0.0, SVG Export Plug-In . SVG Version: 6.00 Build 0)  -->
<svg version="1.1" id="Layer_1" xmlns="http://www.w3.org/2000/svg" xmlns:xlink="http://www.w3.org/1999/xlink" x="0px" y="0px"
	 viewBox="-294 386.7 21.2 21.3" style="enable-background:new -294 386.7 21.2 21.3;" xml:space="preserve">
<g>
	<g>
		<g>
			<path d="M-273.93,402.78l-1.11-3.22c0.53-1.09,0.82-2.31,0.82-3.53c0-2.12-0.82-4.13-2.31-5.65c-1.5-1.52-3.49-2.38-5.61-2.41
				c-2.2-0.03-4.27,0.8-5.83,2.36c-1.5,1.5-2.33,3.48-2.36,5.59c-1.48,1.11-2.35,2.85-2.35,4.7c0,0.87,0.2,1.73,0.57,2.51
				l-0.76,2.22c-0.13,0.38-0.04,0.8,0.25,1.08c0.2,0.2,0.47,0.31,0.74,0.31c0.11,0,0.23-0.02,0.34-0.06l2.22-0.76
				c0.78,0.37,1.64,0.57,2.51,0.57c0,0,0.01,0,0.01,0c1.88,0,3.63-0.9,4.74-2.41c1.15-0.03,2.3-0.31,3.33-0.81l3.22,1.11
				c0.13,0.05,0.27,0.07,0.41,0.07c0.32,0,0.64-0.13,0.88-0.37C-273.89,403.73-273.78,403.24-273.93,402.78z M-286.81,405.35
				C-286.81,405.35-286.81,405.35-286.81,405.35c-0.78,0-1.54-0.19-2.21-0.55c-0.14-0.07-0.3-0.09-0.45-0.04l-2.28,0.78l0.78-2.28
				c0.05-0.15,0.04-0.31-0.04-0.45c-0.36-0.67-0.55-1.44-0.55-2.21c0-1.24,0.48-2.41,1.32-3.28c0.27,1.67,1.07,3.21,2.31,4.43
				c1.23,1.21,2.77,1.97,4.43,2.22C-284.37,404.85-285.55,405.35-286.81,405.35z M-275.03,403.27c-0.03,0.03-0.07,0.04-0.11,0.03
				l-3.45-1.19c-0.06-0.02-0.12-0.03-0.18-0.03c-0.09,0-0.18,0.02-0.27,0.07c-0.99,0.52-2.1,0.8-3.22,0.8c0,0-0.01,0-0.01,0
				c-3.76,0-6.86-3.05-6.92-6.81c-0.03-1.89,0.69-3.67,2.03-5.01c1.34-1.34,3.11-2.06,5.01-2.03c3.76,0.06,6.81,3.17,6.81,6.93
				c0,1.12-0.28,2.23-0.8,3.22c-0.07,0.14-0.09,0.3-0.04,0.45l1.19,3.45C-274.99,403.19-275,403.23-275.03,403.27z"/>
		</g>
	</g>
	<g>
		<g>
			<path d="M-278.9,393.01h-6.76c-0.31,0-0.57,0.25-0.57,0.57c0,0.31,0.25,0.57,0.57,0.57h6.76c0.31,0,0.57-0.25,0.57-0.57
				C-278.33,393.26-278.58,393.01-278.9,393.01z"/>
		</g>
	</g>
	<g>
		<g>
			<path d="M-278.9,395.35h-6.76c-0.31,0-0.57,0.25-0.57,0.57c0,0.31,0.25,0.57,0.57,0.57h6.76c0.31,0,0.57-0.25,0.57-0.57
				C-278.33,395.6-278.58,395.35-278.9,395.35z"/>
		</g>
	</g>
	<g>
		<g>
			<path d="M-281.5,397.68h-4.16c-0.31,0-0.57,0.25-0.57,0.57c0,0.31,0.25,0.57,0.57,0.57h4.16c0.31,0,0.57-0.25,0.57-0.57
				S-281.19,397.68-281.5,397.68z"/>
		</g>
	</g>
</g>
</svg>
