<?xml version="1.0" encoding="utf-8"?>
<!-- Generator: Adobe Illustrator 21.0.0, SVG Export Plug-In . SVG Version: 6.00 Build 0)  -->
<svg version="1.1" id="Layer_1" xmlns="http://www.w3.org/2000/svg" xmlns:xlink="http://www.w3.org/1999/xlink" x="0px" y="0px"
	 viewBox="-294 386.7 21.2 21.3" style="enable-background:new -294 386.7 21.2 21.3;" xml:space="preserve">
<g>
	<g>
		<path d="M-275.9,406.26c0.16,0.02,0.28-0.01,0.34,0.04c0.07,0.06,0.15,0.13,0.22,0.2c0.05,0.06,0.15,0.16,0.11,0.25
			c-0.01,0.02-0.03,0.04-0.05,0.06c-0.09,0.09-0.19,0.07-0.3,0.13c-0.1,0.05-0.03,0.11-0.14,0.11c-5.02,0-10.24,0-15.26,0
			c-0.11,0-0.24,0.03-0.33-0.02c-0.14-0.08-0.37-0.24-0.36-0.33c0.03-0.16,0.2-0.37,0.34-0.4c0.3-0.06,0.62-0.02,1-0.02
			c0-0.23,0-0.41,0-0.59c0-2.65,0-5.29,0-7.94c0-0.64,0.06-0.69,0.71-0.7c0.56,0,1.13,0,1.75,0c0-0.24,0-0.42,0-0.6
			c0-2.06,0-4.13,0-6.19c0-0.87,0-0.87,0.85-0.9c0.09,0,0.19-0.02,0.34-0.03c0-0.39,0.01-0.78,0-1.17
			c-0.01-0.38,0.15-0.54,0.53-0.54c1.89,0.01,3.78,0,5.67,0c0.35,0,0.53,0.15,0.52,0.51c-0.01,0.39,0,0.78,0,1.23
			c0.22,0,0.41,0.01,0.59,0c0.45-0.03,0.61,0.19,0.61,0.62c-0.01,1.29,0,2.58,0,3.87c0,0.17,0,0.34,0,0.58c0.74,0,1.44,0,2.14,0
			c0.62,0,0.71,0.09,0.71,0.71c0,3.5,0,6.99,0,10.49C-275.9,405.85-275.9,406.03-275.9,406.26z M-285.22,406.26c0-0.76,0-1.48,0-2.2
			c0-0.55,0.09-0.64,0.62-0.64c0.77,0,1.54,0,2.32,0c0.87,0,0.88,0.01,0.88,0.86c0,0.66,0,1.31,0,1.97c0.66,0,1.24,0,1.84,0
			c0-5.37,0-10.7,0-16.05c-2.52,0-5.01,0-7.51,0c0,5.37,0,10.71,0,16.06C-286.45,406.26-285.87,406.26-285.22,406.26z
			 M-278.72,395.24c0,3.7,0,7.35,0,11.01c0.69,0,1.34,0,2,0c0-3.69,0-7.35,0-11.01C-277.4,395.24-278.04,395.24-278.72,395.24z
			 M-287.89,406.25c0-2.83,0-5.6,0-8.4c-0.56,0-1.08,0-1.64,0c0,2.81,0,5.59,0,8.4C-288.97,406.25-288.45,406.25-287.89,406.25z
			 M-285.88,389.34c1.75,0,3.45,0,5.15,0c0-0.33,0-0.62,0-0.91c-1.74,0-3.44,0-5.15,0C-285.88,388.75-285.88,389.03-285.88,389.34z
			 M-284.41,404.2c0,0.7,0,1.37,0,2.04c0.76,0,1.49,0,2.22,0c0-0.7,0-1.35,0-2.04C-282.93,404.2-283.65,404.2-284.41,404.2z"/>
		<path d="M-285,395.29c1.28,0,1.24-0.15,1.24,1.26c0,1.35,0.08,1.26-1.24,1.27c-1.45,0-1.27,0.04-1.27-1.27
			C-286.28,395.18-286.41,395.29-285,395.29z M-285.49,396.07c0,0.34,0,0.63,0,0.94c0.32,0,0.61,0,0.91,0c0-0.33,0-0.63,0-0.94
			C-284.9,396.07-285.18,396.07-285.49,396.07z"/>
		<path d="M-280.32,396.52c0,1.36,0.14,1.3-1.3,1.3c-1.31,0-1.22,0.05-1.22-1.24c0-1.45-0.07-1.28,1.31-1.29
			C-280.24,395.29-280.32,395.19-280.32,396.52z M-281.11,396.1c-0.3,0-0.62,0-0.93,0c0,0.32,0,0.61,0,0.91c0.33,0,0.62,0,0.93,0
			C-281.11,396.7-281.11,396.42-281.11,396.1z"/>
		<path d="M-285.03,391.44c1.35,0,1.27-0.1,1.27,1.28c0,1.39,0.03,1.24-1.26,1.24c-1.4,0-1.26,0.1-1.26-1.28
			C-286.28,391.38-286.43,391.42-285.03,391.44z M-285.49,392.22c0,0.34,0,0.64,0,0.95c0.32,0,0.61,0,0.91,0c0-0.33,0-0.63,0-0.95
			C-284.89,392.22-285.17,392.22-285.49,392.22z"/>
		<path d="M-281.6,393.96c-1.31,0-1.25,0.12-1.25-1.25c0-1.37-0.09-1.27,1.28-1.27c1.36,0,1.24-0.05,1.24,1.26
			C-280.32,394.07-280.22,393.96-281.6,393.96z M-282.05,392.23c0,0.34,0,0.63,0,0.94c0.33,0,0.63,0,0.94,0c0-0.33,0-0.62,0-0.94
			C-281.43,392.23-281.72,392.23-282.05,392.23z"/>
		<path d="M-285.06,401.65c-1.34,0-1.22,0.11-1.22-1.21c0-1.43-0.15-1.29,1.29-1.29c1.27,0,1.23-0.19,1.23,1.26
			C-283.76,401.85-283.71,401.63-285.06,401.65z M-284.56,399.94c-0.35,0-0.63,0-0.93,0c0,0.32,0,0.61,0,0.9c0.33,0,0.63,0,0.93,0
			C-284.56,400.53-284.56,400.25-284.56,399.94z"/>
		<path d="M-281.6,401.65c-1.31-0.01-1.24,0.16-1.25-1.24c0-1.42-0.07-1.25,1.23-1.25c1.4,0,1.29-0.16,1.29,1.29
			C-280.32,401.8-280.25,401.64-281.6,401.65z M-281.11,399.94c-0.34,0-0.63,0-0.95,0c0,0.31,0,0.6,0,0.91c0.33,0,0.63,0,0.95,0
			C-281.11,400.54-281.11,400.26-281.11,399.94z"/>
	</g>
	<path d="M-275.49,407.06h-0.44c-0.22,0-0.4-0.18-0.4-0.4v0c0-0.22,0.18-0.4,0.4-0.4h0.44c0.22,0,0.4,0.18,0.4,0.4v0
		C-275.09,406.88-275.27,407.06-275.49,407.06z"/>
	<path d="M-290.88,407.06h-0.44c-0.22,0-0.4-0.18-0.4-0.4v0c0-0.22,0.18-0.4,0.4-0.4h0.44c0.22,0,0.4,0.18,0.4,0.4v0
		C-290.48,406.88-290.66,407.06-290.88,407.06z"/>
</g>
</svg>
